<svg width="374" height="114" xmlns="http://www.w3.org/2000/svg" xmlns:xlink="http://www.w3.org/1999/xlink" xml:space="preserve" overflow="hidden"><defs><clipPath id="clip0"><rect x="446" y="453" width="374" height="114"/></clipPath></defs><g clip-path="url(#clip0)" transform="translate(-446 -453)"><path d="M112.441 350.689C113.633 350.689 114.229 351.285 114.229 352.477 114.229 352.658 114.151 352.865 114.021 353.15L113.167 354.342 114.099 354.342C115.291 354.342 116.741 354.445 118.425 354.601 118.969 354.601 119.642 354.523 120.471 354.342 121.662 354.342 122.258 354.937 122.258 356.129L122.129 356.595C121.947 357.035 121.818 357.89 121.74 359.133 121.611 360.739 121.533 362.423 121.533 364.262 121.533 365.376 121.637 366.93 121.792 368.924 121.792 370.116 121.274 370.712 120.186 370.712 117.777 370.401 115.575 370.22 113.529 370.168 114.151 370.556 114.462 371.333 114.462 372.499L114.384 373.898C117.933 373.975 121.792 374.286 125.962 374.752 130.132 375.141 134.095 375.348 137.851 375.348 138.861 375.348 139.898 375.271 140.96 375.089 141.141 375.089 141.219 375.348 141.219 375.892 141.219 377.135 140.882 378.379 140.234 379.622 139.535 380.943 138.81 381.617 138.11 381.617 136.971 381.617 135.831 381.357 134.717 380.814 130.21 379.13 126.014 378.042 122.155 377.55 119.901 377.239 117.259 377.032 114.254 376.954L114.177 377.757 114.436 386.538C114.436 389.335 113.659 390.734 112.105 390.734 110.913 390.734 110.317 389.335 110.317 386.538 110.499 382.808 110.576 379.881 110.576 377.757L110.499 376.954C106.069 376.954 102.158 377.239 98.7908 377.809 95.1127 378.612 91.4864 379.674 87.9637 380.995 86.9017 381.383 86.047 381.591 85.3735 381.591 84.2079 381.539 83.6122 380.943 83.5086 379.803 83.5086 379.104 83.8453 378.405 84.4928 377.731 85.0627 377.161 85.7879 376.799 86.6168 376.669 97.5475 374.856 105.474 373.898 110.343 373.82L110.265 372.499C110.265 371.307 110.576 370.53 111.198 370.168 108.893 370.22 107.416 370.297 106.743 370.427 106.069 370.479 105.266 370.66 104.282 370.971 103.22 370.971 102.676 370.349 102.676 369.106 103.039 366.567 103.22 364.366 103.22 362.449 103.22 360.532 103.039 358.434 102.676 355.87 102.676 354.678 103.298 354.083 104.541 354.083L106.199 354.212C106.769 354.29 107.598 354.342 108.66 354.342L110.395 354.342C110.654 353.72 110.784 353.098 110.784 352.477 110.784 351.285 111.302 350.689 112.312 350.689ZM88.8185 346.571 101.511 346.571 101.252 345.25C101.252 344.058 101.925 343.463 103.298 343.463 104.671 343.463 105.422 344.162 105.422 345.535L105.344 346.597 120.704 346.597 120.704 345.794C120.704 344.24 121.378 343.463 122.75 343.463 124.123 343.463 124.874 344.162 124.874 345.535L124.538 346.597 138.628 346.597C139.25 346.597 139.587 346.83 139.613 347.322 139.613 348.177 139.354 348.902 138.887 349.524 138.266 350.145 137.463 350.456 136.504 350.456 135.261 350.456 132.205 350.275 127.335 349.938L123.735 349.809 123.268 351.544C122.906 352.218 122.414 352.554 121.74 352.554 120.859 352.554 120.419 352.036 120.419 351.026L120.497 349.835 111.068 349.757 105.215 349.757 105.137 351.026C105.059 352.036 104.619 352.554 103.816 352.554 102.987 352.554 102.469 351.959 102.288 350.767L102.08 349.835C97.7288 349.912 94.3357 350.068 91.8491 350.301 89.5956 350.612 88.1191 350.767 87.4716 350.767 86.1765 350.715 85.503 350.119 85.3994 348.98 85.4512 348.358 85.7879 347.762 86.4614 347.193 87.0312 346.83 87.8083 346.674 88.7926 346.674ZM99.2053 364.469C99.7233 364.469 100.008 364.832 100.008 365.531 100.008 365.92 99.8269 366.36 99.4643 366.8 94.6206 369.961 91.8491 371.515 91.1497 371.515 89.5956 371.515 88.8185 371.074 88.8185 370.194 88.8185 368.873 89.1552 367.992 89.8028 367.603 89.8028 367.37 92.937 366.334 99.1794 364.469ZM92.1599 355.352C92.4189 355.352 93.8176 355.999 96.356 357.268 98.7908 358.59 100.008 359.522 100.008 360.066 100.008 361.257 99.3866 361.853 98.1433 361.853 97.9102 361.853 97.5734 361.75 97.0813 361.516 94.5429 360.092 92.6261 359.211 91.3051 358.849 90.1395 358.538 89.5697 358.175 89.5697 357.709 89.5697 356.103 90.4244 355.326 92.1599 355.326ZM94.2839 383.145C95.294 383.326 96.0711 383.404 96.6151 383.404 98.2469 383.404 100.319 382.627 102.806 381.073 103.35 381.073 103.609 381.332 103.609 381.876 103.609 382.575 102.754 383.896 101.018 385.787 99.3866 387.833 97.9102 388.843 96.641 388.843 95.7862 388.843 95.1127 388.455 94.5688 387.652 93.8694 386.667 93.5068 385.528 93.5068 384.207 93.5068 383.507 93.7658 383.145 94.3098 383.145ZM112.441 367.578 117.363 367.837C118.062 367.837 118.425 367.474 118.425 366.775L118.425 363.459C113.633 363.459 109.929 363.615 107.261 363.925L106.743 363.925 106.484 366.516C106.484 367.396 106.924 367.837 107.805 367.837 109.126 367.655 110.68 367.578 112.467 367.578ZM106.898 360.869 107.494 360.791 118.14 360.791 118.399 360.869 118.399 358.02C118.399 357.657 118.217 357.502 117.881 357.502 115.627 357.32 112.338 357.243 108.038 357.243 107.339 357.243 106.976 357.579 106.976 358.253L106.898 360.921ZM122.077 380.814 122.414 380.943C124.538 381.953 126.273 382.653 127.594 383.015 128.475 383.248 129.64 383.378 131.117 383.404 131.661 383.404 131.92 383.663 131.92 384.207 131.92 385.062 131.428 385.839 130.469 386.59 128.656 387.781 127.231 388.377 126.221 388.377 125.859 388.377 125.574 388.222 125.366 387.911 124.848 387.393 123.553 385.58 121.507 382.523 121.378 382.29 121.3 382.083 121.3 381.85 121.352 381.15 121.611 380.788 122.103 380.788ZM126.195 364.184 126.532 364.314C128.604 365.428 130.288 366.179 131.583 366.567 132.464 366.826 133.603 366.982 135.028 367.034 135.391 367.034 135.546 367.293 135.546 367.837 135.546 368.51 135.157 369.132 134.354 369.779 132.852 370.764 131.687 371.23 130.832 371.23 130.469 371.23 130.158 371.074 129.899 370.764 129.329 370.271 127.905 368.562 125.651 365.635 125.47 365.376 125.392 365.143 125.392 364.961 125.444 364.417 125.703 364.158 126.195 364.158ZM133.422 354.885C134.665 354.885 135.287 355.663 135.287 357.217 135.287 358.071 135.028 358.564 134.484 358.745 129.744 360.118 127.335 360.817 127.231 360.817 126.169 360.817 125.625 360.584 125.625 360.092 125.625 359.651 125.807 359.211 126.144 358.771L132.386 355.17 133.37 354.911Z" fill="#231815" transform="matrix(1.0012 0 0 1 372.166 117.327)"/><path d="M167.613 343.981C169.4 343.981 170.281 344.758 170.281 346.312 170.281 346.571 170.151 346.934 169.892 347.374 169.089 348.747 168.442 349.757 167.975 350.43L172.897 350.689C173.596 350.689 174.632 350.612 175.953 350.43 177.715 350.43 178.621 350.871 178.621 351.751 177.948 354.808 177.611 358.097 177.559 361.594 177.482 362.837 176.705 363.459 175.228 363.459 173.493 363.096 171.239 362.941 168.442 362.941 166.188 362.941 164.194 363.148 162.458 363.615L162.458 366.541 162.536 369.391 168.183 369.132 173.907 369.391C174.606 369.391 175.668 369.313 177.041 369.132 178.777 369.132 179.631 369.572 179.631 370.453 179.01 373.872 178.673 377.498 178.621 381.357 178.544 382.549 177.741 383.145 176.238 383.145 174.632 382.834 172.586 382.679 170.048 382.679 167.302 382.679 164.867 382.886 162.743 383.274 162.691 386.149 161.914 387.6 160.412 387.6 158.91 387.6 158.081 386.46 158.081 384.207 158.599 379.285 158.884 373.561 158.884 367.06 158.884 361.698 158.521 356.932 157.822 352.762 157.822 351.026 158.599 350.171 160.153 350.171 160.827 350.171 161.345 350.353 161.759 350.715L164.479 350.586C165.049 349.161 165.333 347.762 165.333 346.338 165.333 344.784 166.111 344.007 167.665 344.007ZM162.407 360.48C163.261 360.403 164.297 360.351 165.541 360.351 167.276 360.351 169.607 360.429 172.586 360.61 173.544 360.61 174.011 360.247 173.907 359.548L174.114 353.824C174.114 353.461 173.7 353.305 172.845 353.305 172.172 353.124 170.954 353.046 169.193 353.046 167.121 353.046 164.841 353.176 162.407 353.435L162.407 360.48ZM162.614 380.218C163.805 380.14 165.308 380.088 167.121 380.088 168.727 380.088 170.877 380.166 173.57 380.296 174.529 380.296 174.995 379.907 174.969 379.156L175.176 372.499C175.176 372.136 174.736 371.955 173.855 371.955 173.104 371.826 171.731 371.748 169.737 371.748 167.509 371.748 165.1 371.877 162.484 372.136L162.614 380.192ZM196.727 347.037C198.903 347.037 201.467 347.218 204.446 347.555 206.699 347.736 208.642 347.814 210.222 347.814 211.672 347.814 213.408 347.633 215.402 347.296 215.765 347.296 215.946 347.736 215.946 348.617 215.946 349.912 215.376 351.285 214.211 352.736 213.408 353.798 212.683 354.342 212.009 354.342 211.31 354.342 210.403 353.979 209.341 353.202 207.658 352.036 205.793 351.285 203.772 350.871 202.27 350.56 200.664 350.353 198.98 350.275 199.032 350.534 199.058 350.845 199.058 351.207L198.851 358.849C201.648 358.952 204.135 359.082 206.363 359.237 207.191 359.237 207.968 359.056 208.694 358.719 209.885 358.719 210.481 359.496 210.481 361.05 209.782 363.796 209.419 367.37 209.419 371.748 209.419 373.509 209.6 375.4 209.963 377.394 209.963 379.648 209.367 380.788 208.176 380.788 207.191 380.788 206.622 380.14 206.44 378.871 206.207 377.446 206.103 375.763 206.103 373.82L206.363 363.174C206.363 362.553 206.103 362.216 205.56 362.19 204.057 362.009 201.804 361.905 198.773 361.853L198.773 362.527 199.032 386.253C199.032 389.05 198.255 390.449 196.701 390.449 195.51 390.449 194.914 389.05 194.914 386.253 195.095 376.151 195.173 368.251 195.173 362.527L195.173 361.931C193.23 361.983 191.054 362.112 188.671 362.319L188.594 367.759C188.594 372.81 188.101 376.255 187.143 378.068 186.159 380.062 185.2 381.047 184.216 381.047 183.154 381.047 182.092 380.451 181.03 379.259 180.409 378.508 180.098 377.809 180.098 377.187 180.098 376.876 180.279 376.695 180.642 376.669 182.066 376.488 183.206 375.529 184.087 373.82 184.708 372.577 185.019 370.116 185.019 366.438 185.019 364.495 184.838 362.449 184.475 360.325 184.475 359.082 185.097 358.46 186.34 358.46 186.962 358.46 187.454 358.59 187.791 358.849 188.153 358.771 188.516 358.719 188.93 358.719L195.121 358.797 194.914 351.207C194.914 350.819 194.914 350.482 194.991 350.223 192.997 350.223 191.054 350.327 189.138 350.56 187.713 350.689 185.563 351.337 182.688 352.502 181.315 352.502 180.642 351.984 180.642 350.974 180.642 350.223 180.927 349.55 181.496 348.98 182.299 348.047 183.284 347.581 184.475 347.581 189.837 347.218 193.904 347.063 196.701 347.063Z" fill="#231815" transform="matrix(1.0012 0 0 1 372.166 117.327)"/><path d="M245.19 375.892 256.69 375.892 256.613 374.105C256.613 372.551 257.312 371.774 258.659 371.774 260.394 371.774 261.249 372.551 261.249 374.105L261.171 375.892 274.744 375.892C275.418 375.944 275.754 376.203 275.806 376.695 275.806 377.55 275.547 378.275 275.003 378.897 274.382 379.518 273.604 379.829 272.672 379.829 271.973 379.829 270.211 379.622 267.414 379.234 265.419 379.156 263.27 379.078 260.964 379.026L260.757 383.481C264.487 383.533 268.554 383.792 272.983 384.284 276.972 384.595 280.754 384.751 284.354 384.751 285.364 384.751 286.426 384.673 287.488 384.492 287.669 384.492 287.747 384.751 287.747 385.295 287.747 386.538 287.41 387.781 286.737 389.025 286.038 390.346 285.312 391.019 284.613 391.019 283.499 391.019 282.411 390.786 281.349 390.294 277.101 388.791 273.138 387.807 269.46 387.367 266.585 387.004 263.062 386.823 258.892 386.823 253.919 386.823 249.593 387.108 245.863 387.678 241.952 388.429 238.119 389.439 234.363 390.682 233.249 391.071 232.342 391.278 231.643 391.278 230.322 391.2 229.623 390.397 229.597 388.895 229.597 388.196 229.933 387.522 230.581 386.901 231.254 386.279 232.032 385.89 232.912 385.761 243.713 384.388 251.743 383.637 256.975 383.507L256.768 379.052C252.106 379.104 248.713 379.285 246.537 379.57 245.164 379.933 244.257 380.088 243.817 380.088 242.574 380.011 241.9 379.389 241.771 378.223 241.848 377.602 242.211 377.006 242.833 376.436 243.403 376.073 244.18 375.892 245.164 375.892ZM258.685 343.981C260.42 343.981 261.275 344.758 261.275 346.312L260.809 353.357C267.932 353.435 274.174 353.694 279.484 354.083L282.282 353.539C283.525 353.539 284.147 353.979 284.147 354.86 284.147 355.248 284.017 355.714 283.758 356.258 283.137 358.02 282.644 360.843 282.308 364.702 282.308 365.894 281.712 366.49 280.52 366.49 279.51 366.49 278.992 365.972 278.992 364.961 278.992 362.527 279.07 360.273 279.251 358.175 279.251 358.046 278.889 357.838 278.111 357.579 272.62 356.776 266.326 356.388 259.229 356.388 252.857 356.388 246.873 356.673 241.356 357.243 239.414 357.32 238.429 357.812 238.429 358.693 238.429 362.604 238.274 364.936 237.963 365.738 237.704 366.412 237.082 366.723 236.098 366.723 235.269 366.723 234.829 366.49 234.829 365.998 234.829 361.465 234.466 357.579 233.767 354.29 233.767 353.228 234.44 352.684 235.813 352.684 236.746 352.684 237.419 352.813 237.86 353.072 238.559 353.331 239.181 353.461 239.724 353.461 243.713 353.28 248.894 353.202 255.292 353.202L257.027 353.202 256.639 346.208C256.639 344.654 257.338 343.877 258.685 343.877ZM242.859 346.571C243.869 346.752 244.646 346.83 245.19 346.83 246.485 346.83 248.117 346.286 250.111 345.224 250.474 345.224 250.629 345.483 250.629 346.027 250.629 346.597 249.956 347.659 248.635 349.213 247.314 350.897 246.148 351.725 245.19 351.725 244.439 351.725 243.791 351.363 243.273 350.663 242.651 349.783 242.341 348.747 242.341 347.529 242.341 346.856 242.522 346.545 242.859 346.545ZM248.842 359.004 250.707 359.133C251.38 359.211 252.313 359.263 253.504 359.263L260.679 359.263C262.311 359.263 264.254 359.341 266.456 359.522 267.077 359.522 267.854 359.444 268.787 359.263 270.03 359.263 270.652 359.859 270.652 361.05L270.444 361.387C270.263 361.75 270.134 362.345 270.056 363.174 269.926 364.34 269.849 365.531 269.849 366.826 269.849 367.526 269.926 368.458 270.108 369.624 270.108 370.867 269.512 371.489 268.32 371.489 264.746 371.126 261.534 370.945 258.685 370.945 255.11 370.945 252.805 371.023 251.847 371.204 250.992 371.256 250.008 371.437 248.842 371.722 247.599 371.722 246.977 371.1 246.977 369.857 247.34 367.992 247.521 366.386 247.521 365.013 247.521 363.848 247.34 362.449 246.977 360.765 246.977 359.574 247.599 358.978 248.842 358.978ZM258.685 368.381 265.471 368.64C266.145 368.64 266.481 368.277 266.481 367.578L266.481 362.915C266.481 362.553 266.3 362.371 265.937 362.371 262.933 362.19 258.504 362.112 252.701 362.112 251.847 362.112 251.432 362.475 251.432 363.174 251.432 364.625 251.251 365.998 250.914 367.293 250.914 368.173 251.432 368.614 252.442 368.614 254.256 368.432 256.354 368.355 258.685 368.355ZM268.061 345.25 268.32 345.379C270.108 346.26 271.532 346.856 272.646 347.167 273.397 347.426 274.382 347.555 275.573 347.555 275.936 347.555 276.091 347.814 276.091 348.358 276.091 349.032 275.703 349.653 274.9 350.275 273.397 351.259 272.206 351.725 271.377 351.725 271.118 351.725 270.859 351.596 270.652 351.337 270.211 350.897 269.149 349.317 267.466 346.623 267.336 346.39 267.258 346.208 267.258 346.027 267.31 345.509 267.569 345.224 268.061 345.224Z" fill="#231815" transform="matrix(1.0012 0 0 1 372.166 117.327)"/><path d="M331.807 350.689C332.998 350.689 333.594 351.285 333.594 352.477 333.594 352.658 333.516 352.865 333.387 353.15L332.532 354.342 333.464 354.342C334.656 354.342 336.106 354.445 337.79 354.601 338.334 354.601 339.007 354.523 339.836 354.342 341.028 354.342 341.624 354.937 341.624 356.129L341.494 356.595C341.313 357.035 341.183 357.89 341.106 359.133 340.976 360.739 340.898 362.423 340.898 364.262 340.898 365.376 341.002 366.93 341.157 368.924 341.157 370.116 340.639 370.712 339.551 370.712 337.143 370.401 334.941 370.22 332.895 370.168 333.516 370.556 333.827 371.333 333.827 372.499L333.749 373.898C337.298 373.975 341.157 374.286 345.328 374.752 349.498 375.141 353.461 375.348 357.217 375.348 358.227 375.348 359.263 375.271 360.351 375.089 360.532 375.089 360.61 375.348 360.61 375.892 360.61 377.135 360.273 378.379 359.626 379.622 358.926 380.943 358.201 381.617 357.502 381.617 356.362 381.617 355.222 381.357 354.108 380.814 349.601 379.13 345.405 378.042 341.546 377.55 339.292 377.239 336.65 377.032 333.646 376.954L333.568 377.757 333.827 386.538C333.827 389.335 333.05 390.734 331.496 390.734 330.304 390.734 329.709 389.335 329.709 386.538 329.89 382.808 329.968 379.881 329.968 377.757L329.89 376.954C325.461 376.954 321.549 377.239 318.182 377.809 314.504 378.612 310.878 379.674 307.355 380.995 306.293 381.383 305.438 381.591 304.765 381.591 303.599 381.539 303.003 380.943 302.9 379.803 302.9 379.104 303.237 378.405 303.884 377.731 304.454 377.161 305.179 376.799 306.008 376.669 316.939 374.856 324.865 373.898 329.734 373.82L329.657 372.499C329.657 371.307 329.968 370.53 330.589 370.168 328.284 370.22 326.808 370.297 326.134 370.427 325.461 370.479 324.658 370.66 323.673 370.971 322.611 370.971 322.067 370.349 322.067 369.106 322.43 366.567 322.611 364.366 322.611 362.449 322.611 360.532 322.43 358.434 322.067 355.87 322.067 354.678 322.689 354.083 323.932 354.083L325.59 354.212C326.16 354.29 326.989 354.342 328.051 354.342L329.786 354.342C330.045 353.72 330.175 353.098 330.175 352.477 330.175 351.285 330.693 350.689 331.703 350.689ZM308.21 346.571 320.902 346.571 320.643 345.25C320.643 344.058 321.316 343.463 322.689 343.463 324.062 343.463 324.813 344.162 324.813 345.535L324.735 346.597 340.095 346.597 340.095 345.794C340.095 344.24 340.769 343.463 342.142 343.463 343.514 343.463 344.266 344.162 344.266 345.535L343.929 346.597 358.02 346.597C358.641 346.597 358.978 346.83 359.004 347.322 359.004 348.177 358.745 348.902 358.279 349.524 357.657 350.145 356.854 350.456 355.896 350.456 354.652 350.456 351.596 350.275 346.726 349.938L343.126 349.809 342.66 351.544C342.297 352.218 341.805 352.554 341.131 352.554 340.251 352.554 339.81 352.036 339.81 351.026L339.888 349.835 330.46 349.757 324.606 349.757 324.528 351.026C324.45 352.036 324.01 352.554 323.207 352.554 322.378 352.554 321.86 351.959 321.679 350.767L321.472 349.835C317.12 349.912 313.727 350.068 311.24 350.301 308.987 350.612 307.51 350.767 306.863 350.767 305.568 350.715 304.894 350.119 304.791 348.98 304.843 348.358 305.179 347.762 305.853 347.193 306.423 346.83 307.2 346.674 308.184 346.674ZM318.571 364.469C319.089 364.469 319.374 364.832 319.374 365.531 319.374 365.92 319.192 366.36 318.83 366.8 313.986 369.961 311.214 371.515 310.515 371.515 308.961 371.515 308.184 371.074 308.184 370.194 308.184 368.873 308.521 367.992 309.168 367.603 309.168 367.37 312.302 366.334 318.545 364.469ZM311.525 355.352C311.784 355.352 313.183 355.999 315.721 357.268 318.156 358.59 319.374 359.522 319.374 360.066 319.374 361.257 318.752 361.853 317.509 361.853 317.276 361.853 316.939 361.75 316.447 361.516 313.908 360.092 311.991 359.211 310.671 358.849 309.505 358.538 308.935 358.175 308.935 357.709 308.935 356.103 309.79 355.326 311.525 355.326ZM313.649 383.145C314.659 383.326 315.436 383.404 315.98 383.404 317.612 383.404 319.684 382.627 322.171 381.073 322.715 381.073 322.974 381.332 322.974 381.876 322.974 382.575 322.119 383.896 320.384 385.787 318.752 387.833 317.276 388.843 316.006 388.843 315.152 388.843 314.478 388.455 313.934 387.652 313.235 386.667 312.872 385.528 312.872 384.207 312.872 383.507 313.131 383.145 313.675 383.145ZM331.807 367.578 336.728 367.837C337.427 367.837 337.79 367.474 337.79 366.775L337.79 363.459C332.998 363.459 329.294 363.615 326.626 363.925L326.108 363.925 325.849 366.516C325.849 367.396 326.289 367.837 327.17 367.837 328.491 367.655 330.045 367.578 331.833 367.578ZM326.289 360.869 326.885 360.791 337.531 360.791 337.79 360.869 337.79 358.02C337.79 357.657 337.609 357.502 337.272 357.502 335.019 357.32 331.729 357.243 327.429 357.243 326.73 357.243 326.367 357.579 326.367 358.253L326.289 360.921ZM341.442 380.814 341.779 380.943C343.903 381.953 345.638 382.653 346.959 383.015 347.84 383.248 349.006 383.378 350.482 383.404 351.026 383.404 351.285 383.663 351.285 384.207 351.285 385.062 350.793 385.839 349.835 386.59 348.021 387.781 346.597 388.377 345.587 388.377 345.224 388.377 344.939 388.222 344.732 387.911 344.214 387.393 342.919 385.58 340.872 382.523 340.743 382.29 340.665 382.083 340.665 381.85 340.717 381.15 340.976 380.788 341.468 380.788ZM345.561 364.184 345.897 364.314C347.97 365.428 349.653 366.179 350.948 366.567 351.829 366.826 352.969 366.982 354.393 367.034 354.756 367.034 354.911 367.293 354.911 367.837 354.911 368.51 354.523 369.132 353.72 369.779 352.218 370.764 351.052 371.23 350.197 371.23 349.835 371.23 349.524 371.074 349.265 370.764 348.695 370.271 347.27 368.562 345.017 365.635 344.835 365.376 344.758 365.143 344.758 364.961 344.81 364.417 345.069 364.158 345.561 364.158ZM352.813 354.885C354.057 354.885 354.678 355.663 354.678 357.217 354.678 358.071 354.419 358.564 353.875 358.745 349.135 360.118 346.726 360.817 346.623 360.817 345.561 360.817 345.017 360.584 345.017 360.092 345.017 359.651 345.198 359.211 345.535 358.771L351.777 355.17 352.762 354.911Z" fill="#231815" transform="matrix(1.0012 0 0 1 372.166 117.327)"/><path d="M405.187 344.447 417.621 344.991C418.372 344.991 419.408 344.81 420.755 344.447 422.49 344.447 423.345 345.069 423.345 346.312 422.723 349.161 422.387 352.166 422.361 355.352 422.257 356.776 421.506 357.476 420.029 357.476 416.74 357.113 412.492 356.932 407.26 356.932 402.027 356.932 397.469 357.191 393.557 357.735L393.557 358.797C393.557 360.247 393.48 361.646 393.35 362.915L393.48 362.915C395.474 362.734 399.593 362.656 405.835 362.656L425.443 362.656C425.806 362.656 426.583 362.475 427.774 362.138 429.51 362.138 430.364 362.993 430.364 364.728 429.484 368.795 428.888 372.888 428.577 376.954 428.137 382.575 426.997 386.279 425.184 388.066 423.578 389.672 421.687 390.449 419.46 390.449 418.398 390.449 417.517 389.983 416.792 389.05 416.299 388.247 416.066 387.496 416.066 386.797 416.066 386.046 416.429 385.631 417.128 385.528 420.004 385.269 421.843 384.595 422.646 383.533 423.656 382.368 424.51 378.949 425.158 373.224 425.521 369.727 425.676 367.578 425.676 366.775 425.676 366.101 425.417 365.79 424.873 365.79L408.399 365.79C404.592 365.79 400.758 365.972 396.899 366.308 394.853 366.619 393.531 366.775 392.91 366.775L392.78 366.775C392.521 368.096 392.159 369.339 391.718 370.504 390.216 373.742 387.988 376.617 385.062 379.156 383.248 380.606 381.798 381.357 380.736 381.357 379.674 381.357 378.508 380.788 377.161 379.622 376.281 378.923 375.84 378.172 375.84 377.42 375.84 376.721 376.255 376.281 377.11 376.151 379.052 375.97 380.736 375.478 382.16 374.701 384.828 373.509 386.849 371.256 388.273 367.992 389.465 365.117 390.061 361.491 390.061 357.165 390.061 354.652 389.905 351.13 389.594 346.597 389.594 345.172 390.19 344.473 391.382 344.473 392.185 344.473 392.754 344.654 393.117 345.017L393.195 345.017 405.162 344.473ZM393.557 348.099 393.428 350.094 393.506 354.29C396.018 353.979 399.567 353.824 404.151 353.824 407.441 353.824 411.87 353.901 417.439 354.083 418.372 354.083 418.812 353.824 418.76 353.28L418.967 348.617C418.967 348.099 418.527 347.814 417.646 347.814 415.652 347.633 412.026 347.555 406.742 347.555 402.753 347.555 398.375 347.736 393.583 348.099ZM398.401 370.453C399.075 370.453 399.722 370.556 400.318 370.712 400.94 370.893 401.872 370.971 403.115 370.971L407.104 370.971C408.037 370.971 409.125 371.048 410.368 371.23 410.99 371.23 411.767 371.048 412.699 370.686 413.942 370.686 414.564 371.385 414.564 372.758L414.357 373.146C414.176 373.535 414.046 374.26 413.968 375.271 413.839 376.591 413.761 378.016 413.761 379.518 413.761 380.373 413.839 381.487 414.02 382.912 414.02 384.284 413.398 384.984 412.155 384.984 409.669 384.621 407.441 384.44 405.447 384.44 402.882 384.44 401.25 384.518 400.603 384.647 399.981 384.647 399.256 384.751 398.401 384.984 397.21 384.984 396.614 384.362 396.614 383.119 396.976 380.995 397.132 379.104 397.132 377.472 397.132 376.048 396.951 374.312 396.614 372.214 396.614 371.023 397.21 370.427 398.401 370.427ZM405.447 381.332 409.306 381.591C410.005 381.591 410.368 381.332 410.368 380.788L410.368 374.804C410.368 374.312 410.187 374.079 409.85 374.079 408.114 373.898 405.628 373.82 402.338 373.82 401.458 373.82 401.017 374.234 401.017 375.089 401.017 377.032 400.862 378.845 400.551 380.529 400.551 381.228 401.069 381.591 402.079 381.591 403.064 381.409 404.177 381.332 405.472 381.332Z" fill="#231815" transform="matrix(1.0012 0 0 1 372.166 117.327)"/><path d="M101.744 424.899C100.63 424.899 99.9305 425.184 99.6456 425.754L95.035 435.079C93.8694 437.436 92.1858 438.601 89.9582 438.601 89.492 438.601 89.0775 438.524 88.7149 438.342 88.2228 438.135 87.9637 437.824 87.9637 437.41 87.9637 436.684 88.3523 436.322 89.1293 436.322 89.3883 436.322 89.751 436.477 90.2172 436.762 90.7094 437.047 91.0979 437.177 91.4087 437.177 92.1858 437.177 92.937 436.607 93.6104 435.493L88.6113 426.065C88.2487 425.391 87.4975 425.003 86.3837 424.873L86.3837 423.967 92.937 423.967 92.937 424.873C91.6159 425.003 90.9425 425.288 90.9425 425.702 90.9425 425.987 91.0202 426.272 91.1756 426.583L94.7242 433.499C95.3458 432.281 96.1488 430.649 97.1331 428.629 97.677 427.489 97.9361 426.686 97.9361 426.272 97.9361 425.547 97.2367 425.08 95.8639 424.899L95.8639 423.992 101.77 423.992 101.77 424.899Z" fill="#231815" transform="matrix(1.0012 0 0 1 372.166 117.327)"/><path d="M120.549 434.353C119.746 435.26 118.995 435.726 118.373 435.726 117.078 435.726 116.378 435.208 116.275 434.172 114.539 435.363 113.115 435.959 112.001 435.959 111.068 435.959 110.265 435.726 109.644 435.234 108.919 434.716 108.582 433.965 108.582 433.032 108.582 431.763 109.385 430.675 110.965 429.769 112.234 429.069 113.995 428.551 116.197 428.266L116.197 426.22C116.197 425.08 115.601 424.51 114.384 424.51 113.736 424.51 113.27 424.614 112.959 424.795 112.674 424.977 112.389 425.365 112.079 425.987 111.794 426.583 111.612 426.945 111.535 427.049 111.25 427.386 110.939 427.567 110.576 427.567 109.799 427.567 109.411 427.178 109.411 426.401 109.411 425.624 109.903 425.029 110.913 424.485 111.897 423.941 113.063 423.656 114.41 423.656 116.819 423.656 118.01 424.51 118.01 426.22L118.01 433.291C118.01 433.706 118.036 433.991 118.114 434.12 118.217 434.405 118.425 434.535 118.761 434.535 119.072 434.535 119.538 434.302 120.134 433.809L120.575 434.353ZM116.197 433.188 116.197 429.121C114.332 429.354 112.959 429.743 112.079 430.313 111.068 430.986 110.55 431.763 110.55 432.696 110.55 433.369 110.835 433.861 111.353 434.224 111.794 434.509 112.364 434.638 113.063 434.638 113.866 434.638 114.902 434.146 116.171 433.188Z" fill="#231815" transform="matrix(1.0012 0 0 1 372.166 117.327)"/><path d="M141.296 435.545 134.406 435.545 134.406 434.638C135.494 434.586 136.038 434.405 136.038 434.094 136.038 433.887 135.883 433.576 135.598 433.162 135.313 432.747 134.432 431.478 133.008 429.38L131.065 430.934 131.065 433.369C131.065 433.965 131.272 434.353 131.687 434.535 131.92 434.638 132.412 434.664 133.163 434.664L133.163 435.571 127.18 435.571 127.18 434.664C127.957 434.664 128.423 434.612 128.63 434.535 129.045 434.379 129.278 433.991 129.278 433.369L129.278 421.661C129.278 421.014 129.2 420.599 129.045 420.418 128.889 420.211 128.527 420.133 127.983 420.133L127.465 420.133 127.465 419.304C128.786 419.123 130.003 418.734 131.091 418.113L131.091 429.743 134.795 426.66C135.287 426.22 135.546 425.883 135.546 425.65 135.546 425.158 134.95 424.925 133.733 424.925L133.733 424.018 140.649 424.018 140.649 424.925C138.965 425.158 137.54 425.754 136.401 426.66L134.329 428.344 137.825 432.644C138.706 433.732 139.872 434.405 141.348 434.664L141.348 435.571Z" fill="#231815" transform="matrix(1.0012 0 0 1 372.166 117.327)"/><path d="M161.707 435.622 157.9 436.089 157.9 433.965C156.475 435.26 155.076 435.907 153.729 435.907 152.486 435.907 151.476 435.571 150.725 434.897 149.948 434.224 149.559 433.265 149.559 432.022L149.559 426.634C149.559 426.065 149.455 425.728 149.248 425.572 149.041 425.417 148.627 425.339 147.927 425.313L147.927 424.485C149.171 424.303 150.31 423.941 151.372 423.397L151.372 432.022C151.372 432.825 151.657 433.473 152.201 433.965 152.745 434.405 153.444 434.638 154.273 434.638 155.517 434.638 156.734 434.043 157.9 432.877L157.9 426.557C157.9 425.987 157.744 425.676 157.433 425.547 157.278 425.495 157.097 425.469 156.838 425.469L156.242 425.469 156.242 424.64C157.666 424.303 158.832 423.863 159.687 423.397L159.687 433.447C159.687 434.276 160.36 434.716 161.681 434.82L161.681 435.648Z" fill="#231815" transform="matrix(1.0012 0 0 1 372.166 117.327)"/><path d="M178.88 432.618C178.88 433.628 178.336 434.457 177.274 435.079 176.342 435.622 175.358 435.907 174.27 435.907 173.337 435.907 172.482 435.804 171.731 435.622 170.98 435.441 170.618 435.363 170.643 435.363 170.333 435.363 169.892 435.545 169.374 435.933L168.468 431.919 169.271 431.737C169.711 432.773 170.358 433.602 171.239 434.198 172.12 434.794 173.156 435.104 174.27 435.104 174.995 435.104 175.694 434.897 176.368 434.509 177.145 434.043 177.533 433.499 177.533 432.799 177.533 432.178 177.015 431.634 175.953 431.193 175.176 430.908 174.399 430.649 173.622 430.364 171.55 429.587 170.307 429.095 169.918 428.888 168.934 428.344 168.442 427.645 168.442 426.79 168.442 425.702 168.934 424.873 169.892 424.303 170.695 423.837 171.68 423.604 172.871 423.604 173.622 423.604 174.347 423.708 175.047 423.863 175.746 424.07 176.135 424.148 176.161 424.148 176.368 424.148 176.834 423.967 177.533 423.578L178.259 427.049 177.352 427.23C176.756 426.142 176.057 425.391 175.28 424.951 174.606 424.588 173.803 424.407 172.871 424.407 172.172 424.407 171.55 424.51 171.006 424.718 170.307 425.029 169.97 425.495 169.97 426.116 169.97 426.686 170.281 427.153 170.902 427.489 171.161 427.619 172.172 427.955 173.959 428.551 175.565 429.069 176.653 429.51 177.171 429.82 178.285 430.494 178.854 431.4 178.854 432.54Z" fill="#231815" transform="matrix(1.0012 0 0 1 372.166 117.327)"/><path d="M199.861 435.545 193.878 435.545 193.878 434.638C195.276 434.561 195.95 434.146 195.95 433.369L195.95 427.722C195.95 425.857 195.095 424.899 193.411 424.899 192.168 424.899 190.899 425.598 189.63 426.971L189.63 433.317C189.63 433.913 189.837 434.302 190.251 434.483 190.536 434.586 191.003 434.638 191.676 434.638L191.676 435.545 185.693 435.545 185.693 434.638C186.392 434.638 186.858 434.586 187.117 434.483 187.558 434.302 187.765 433.913 187.765 433.317L187.765 421.635C187.765 421.065 187.687 420.677 187.558 420.496 187.402 420.211 187.039 420.081 186.47 420.081L185.952 420.081 185.952 419.252C187.273 419.071 188.49 418.682 189.604 418.061L189.604 425.702C191.003 424.303 192.427 423.604 193.852 423.604 195.043 423.604 195.976 423.992 196.675 424.744 197.349 425.495 197.659 426.479 197.659 427.696L197.659 433.343C197.659 433.887 197.867 434.25 198.307 434.405 198.54 434.509 199.058 434.586 199.835 434.612L199.835 435.519Z" fill="#231815" transform="matrix(1.0012 0 0 1 372.166 117.327)"/><path d="M212.76 435.545 206.596 435.545 206.596 434.742C207.373 434.742 207.891 434.69 208.124 434.612 208.564 434.431 208.771 434.017 208.771 433.369L208.771 427.127C208.771 426.453 208.668 426.013 208.435 425.857 208.202 425.702 207.709 425.598 206.958 425.572L206.958 424.847C208.357 424.718 209.574 424.277 210.585 423.578L210.585 433.369C210.585 434.043 210.766 434.457 211.18 434.612 211.413 434.716 211.931 434.742 212.76 434.742L212.76 435.545ZM211.491 420.263C211.491 420.755 211.31 421.195 210.947 421.558 210.61 421.894 210.17 422.076 209.678 422.076 209.186 422.076 208.745 421.894 208.409 421.558 208.046 421.195 207.865 420.755 207.865 420.263 207.865 419.77 208.046 419.356 208.409 418.967 208.745 418.631 209.186 418.449 209.678 418.449 210.17 418.449 210.61 418.631 210.947 418.993 211.31 419.356 211.491 419.77 211.491 420.263Z" fill="#231815" transform="matrix(1.0012 0 0 1 372.166 117.327)"/><path d="M232.964 435.441C231.876 435.441 230.711 435.519 229.415 435.7L229.415 433.55C228.198 435.13 226.799 435.907 225.219 435.907 223.639 435.907 222.318 435.312 221.282 434.094 220.298 432.929 219.806 431.53 219.806 429.898 219.806 428.266 220.272 426.764 221.204 425.572 222.241 424.277 223.562 423.656 225.219 423.656 226.618 423.656 228.017 424.355 229.415 425.754L229.415 421.325C229.415 420.832 229.312 420.496 229.105 420.314 228.923 420.133 228.587 420.029 228.094 420.029L227.525 420.029 227.525 419.201C228.638 419.149 229.882 418.786 231.254 418.113L231.254 432.825C231.254 433.576 231.358 434.043 231.539 434.25 231.721 434.457 232.213 434.586 232.964 434.638L232.964 435.467ZM229.441 432.048 229.441 427.178C228.328 425.417 227.084 424.536 225.711 424.536 224.339 424.536 223.303 425.106 222.629 426.272 222.085 427.204 221.826 428.396 221.826 429.898 221.826 431.4 222.111 432.488 222.681 433.317 223.354 434.302 224.365 434.794 225.711 434.794 227.188 434.794 228.431 433.887 229.441 432.048Z" fill="#231815" transform="matrix(1.0012 0 0 1 372.166 117.327)"/><path d="M251.614 429.898C251.614 431.737 251.044 433.188 249.878 434.276 248.764 435.363 247.288 435.907 245.449 435.907 243.61 435.907 242.133 435.363 240.994 434.276 239.828 433.188 239.258 431.737 239.258 429.898 239.258 428.059 239.828 426.634 240.994 425.417 242.133 424.226 243.61 423.63 245.423 423.63 247.236 423.63 248.687 424.226 249.852 425.417 251.018 426.609 251.614 428.111 251.614 429.898ZM249.8 429.898C249.8 428.396 249.464 427.153 248.764 426.168 247.987 425.08 246.873 424.536 245.475 424.536 244.076 424.536 242.962 425.08 242.159 426.168 241.46 427.127 241.097 428.37 241.097 429.898 241.097 431.426 241.46 432.592 242.185 433.499 242.962 434.509 244.05 435.001 245.449 435.001 246.848 435.001 247.935 434.509 248.713 433.499 249.438 432.566 249.8 431.375 249.8 429.898Z" fill="#231815" transform="matrix(1.0012 0 0 1 372.166 117.327)"/><path d="M284.639 429.898C284.639 431.556 284.198 432.929 283.344 434.043 282.411 435.286 281.142 435.907 279.536 435.907 277.93 435.907 276.713 435.312 275.832 434.146L275.832 436.011C275.832 436.892 276.609 437.358 278.189 437.358L278.189 438.265 271.636 438.265 271.636 437.358C273.216 437.358 274.019 436.918 274.019 436.011L274.019 426.557C274.019 425.857 273.708 425.495 273.061 425.495L272.024 425.495 272.024 424.666C273.397 424.485 274.667 424.07 275.832 423.423L275.832 425.313C276.79 424.226 277.956 423.682 279.355 423.682 280.961 423.682 282.256 424.355 283.266 425.676 284.198 426.893 284.665 428.318 284.665 429.95ZM282.826 429.898C282.826 428.499 282.567 427.36 282.049 426.453 281.401 425.313 280.469 424.718 279.199 424.718 277.93 424.718 276.816 425.339 275.832 426.583L275.832 432.721C276.609 434.198 277.542 434.923 278.63 434.923 280.08 434.923 281.168 434.431 281.867 433.447 282.489 432.592 282.826 431.426 282.826 429.898Z" fill="#231815" transform="matrix(1.0012 0 0 1 372.166 117.327)"/><path d="M305.671 435.545 299.688 435.545 299.688 434.638C301.087 434.561 301.76 434.146 301.76 433.369L301.76 427.722C301.76 425.857 300.905 424.899 299.222 424.899 297.978 424.899 296.709 425.598 295.44 426.971L295.44 433.317C295.44 433.913 295.647 434.302 296.062 434.483 296.347 434.586 296.813 434.638 297.486 434.638L297.486 435.545 291.503 435.545 291.503 434.638C292.202 434.638 292.668 434.586 292.928 434.483 293.368 434.302 293.575 433.913 293.575 433.317L293.575 421.635C293.575 421.065 293.497 420.677 293.368 420.496 293.212 420.211 292.824 420.081 292.28 420.081L291.762 420.081 291.762 419.252C293.083 419.071 294.3 418.682 295.414 418.061L295.414 425.702C296.813 424.303 298.237 423.604 299.662 423.604 300.854 423.604 301.786 423.992 302.485 424.744 303.159 425.495 303.47 426.479 303.47 427.696L303.47 433.343C303.47 433.887 303.677 434.25 304.117 434.405 304.35 434.509 304.868 434.586 305.645 434.612L305.645 435.519Z" fill="#231815" transform="matrix(1.0012 0 0 1 372.166 117.327)"/><path d="M324.373 434.353C323.57 435.26 322.819 435.726 322.197 435.726 320.902 435.726 320.202 435.208 320.099 434.172 318.363 435.363 316.939 435.959 315.825 435.959 314.893 435.959 314.09 435.726 313.468 435.234 312.743 434.716 312.406 433.965 312.406 433.032 312.406 431.763 313.209 430.675 314.789 429.769 316.058 429.069 317.819 428.551 320.021 428.266L320.021 426.22C320.021 425.08 319.425 424.51 318.208 424.51 317.56 424.51 317.094 424.614 316.783 424.795 316.499 424.977 316.214 425.365 315.903 425.987 315.618 426.583 315.436 426.945 315.359 427.049 315.074 427.386 314.763 427.567 314.4 427.567 313.623 427.567 313.209 427.178 313.209 426.401 313.209 425.624 313.701 425.029 314.711 424.485 315.695 423.941 316.861 423.656 318.208 423.656 320.617 423.656 321.808 424.51 321.808 426.22L321.808 433.291C321.808 433.706 321.834 433.991 321.912 434.12 322.016 434.405 322.223 434.535 322.56 434.535 322.87 434.535 323.337 434.302 323.932 433.809L324.373 434.353ZM320.021 433.188 320.021 429.121C318.156 429.354 316.783 429.743 315.903 430.313 314.893 430.986 314.375 431.763 314.375 432.696 314.375 433.369 314.659 433.861 315.177 434.224 315.618 434.509 316.188 434.638 316.887 434.638 317.69 434.638 318.726 434.146 319.995 433.188Z" fill="#231815" transform="matrix(1.0012 0 0 1 372.166 117.327)"/><path d="M340.562 425.003C340.562 425.339 340.432 425.598 340.147 425.78 339.914 425.961 339.629 426.065 339.318 426.065 339.111 426.065 338.774 425.987 338.308 425.806 337.868 425.65 337.531 425.547 337.324 425.547 336.909 425.547 336.469 425.857 336.003 426.453 335.614 426.945 335.329 427.437 335.148 427.955L335.148 433.291C335.148 433.991 335.381 434.405 335.821 434.561 335.951 434.612 336.495 434.638 337.505 434.664L337.505 435.571 330.978 435.571 330.978 434.664C331.755 434.638 332.299 434.561 332.558 434.483 333.076 434.302 333.361 433.913 333.361 433.291L333.361 426.557C333.361 425.857 332.998 425.495 332.247 425.495L331.548 425.495 331.548 424.666C332.843 424.562 334.034 424.148 335.174 423.423L335.174 426.609C335.666 425.702 336.21 425.029 336.806 424.562 337.583 423.967 338.36 423.682 339.163 423.682 340.121 423.682 340.613 424.122 340.613 425.054Z" fill="#231815" transform="matrix(1.0012 0 0 1 372.166 117.327)"/><path d="M369.365 435.545 363.019 435.545 363.019 434.638C363.874 434.586 364.443 434.483 364.728 434.327 365.091 434.094 365.298 433.576 365.298 432.799L365.298 427.696C365.298 425.65 364.417 424.64 362.656 424.64 361.568 424.64 360.403 425.288 359.185 426.609 359.185 426.66 359.185 426.764 359.185 426.893L359.185 432.825C359.185 433.628 359.367 434.146 359.729 434.379 359.988 434.509 360.558 434.612 361.465 434.664L361.465 435.571 355.145 435.571 355.145 434.664C355.999 434.612 356.543 434.509 356.828 434.353 357.191 434.12 357.398 433.602 357.398 432.825L357.398 427.722C357.398 425.676 356.517 424.666 354.756 424.666 353.798 424.666 352.71 425.288 351.492 426.505L351.492 433.032C351.492 433.783 351.7 434.224 352.088 434.405 352.295 434.509 352.865 434.586 353.772 434.664L353.772 435.571 347.426 435.571 347.426 434.664C348.28 434.664 348.85 434.586 349.083 434.457 349.498 434.25 349.705 433.783 349.705 433.032L349.705 426.116C349.705 425.65 349.472 425.417 348.98 425.417L347.892 425.417 347.892 424.51C348.954 424.459 350.171 424.096 351.518 423.423L351.518 425.521C353.098 424.277 354.549 423.656 355.87 423.656 357.527 423.656 358.59 424.355 359.056 425.754 359.936 425.054 360.662 424.562 361.232 424.277 362.06 423.863 362.915 423.656 363.796 423.656 366.023 423.656 367.137 424.847 367.137 427.23L367.137 432.825C367.137 433.628 367.319 434.146 367.707 434.379 367.94 434.509 368.51 434.612 369.417 434.664L369.417 435.571Z" fill="#231815" transform="matrix(1.0012 0 0 1 372.166 117.327)"/><path d="M388.118 434.353C387.315 435.26 386.564 435.726 385.942 435.726 384.647 435.726 383.948 435.208 383.844 434.172 382.109 435.363 380.684 435.959 379.57 435.959 378.638 435.959 377.835 435.726 377.213 435.234 376.488 434.716 376.151 433.965 376.151 433.032 376.151 431.763 376.954 430.675 378.534 429.769 379.803 429.069 381.565 428.551 383.766 428.266L383.766 426.22C383.766 425.08 383.171 424.51 381.953 424.51 381.306 424.51 380.839 424.614 380.529 424.795 380.244 424.977 379.959 425.365 379.648 425.987 379.363 426.583 379.182 426.945 379.104 427.049 378.819 427.386 378.508 427.567 378.146 427.567 377.369 427.567 376.954 427.178 376.954 426.401 376.954 425.624 377.446 425.029 378.456 424.485 379.441 423.941 380.606 423.656 381.953 423.656 384.362 423.656 385.554 424.51 385.554 426.22L385.554 433.291C385.554 433.706 385.58 433.991 385.657 434.12 385.761 434.405 385.968 434.535 386.305 434.535 386.616 434.535 387.082 434.302 387.678 433.809L388.118 434.353ZM383.766 433.188 383.766 429.121C381.901 429.354 380.529 429.743 379.648 430.313 378.638 430.986 378.12 431.763 378.12 432.696 378.12 433.369 378.405 433.861 378.923 434.224 379.363 434.509 379.933 434.638 380.632 434.638 381.435 434.638 382.471 434.146 383.74 433.188Z" fill="#231815" transform="matrix(1.0012 0 0 1 372.166 117.327)"/><path d="M405.317 432.721C403.918 434.871 402.157 435.933 400.059 435.933 398.557 435.933 397.261 435.338 396.199 434.12 395.215 432.98 394.697 431.634 394.697 430.105 394.697 428.266 395.293 426.712 396.51 425.469 397.702 424.251 399.204 423.63 401.043 423.63 401.872 423.63 402.649 423.785 403.4 424.122 404.307 424.562 404.773 425.158 404.773 425.883 404.773 426.712 404.384 427.101 403.582 427.101 402.727 427.101 402.312 426.686 402.312 425.883 402.312 425.78 402.312 425.65 402.364 425.469 402.39 425.313 402.416 425.158 402.416 425.054 402.416 424.64 401.872 424.433 400.784 424.433 399.437 424.433 398.401 425.003 397.65 426.116 397.028 427.075 396.692 428.266 396.692 429.691 396.692 431.116 397.054 432.281 397.805 433.214 398.582 434.224 399.67 434.716 401.043 434.716 402.235 434.716 403.452 433.913 404.773 432.333L405.317 432.696Z" fill="#231815" transform="matrix(1.0012 0 0 1 372.166 117.327)"/><path d="M427.567 424.899C426.453 424.899 425.754 425.184 425.469 425.754L420.858 435.079C419.693 437.436 418.009 438.601 415.781 438.601 415.315 438.601 414.901 438.524 414.538 438.342 414.046 438.135 413.787 437.824 413.787 437.41 413.787 436.684 414.176 436.322 414.953 436.322 415.212 436.322 415.574 436.477 416.04 436.762 416.533 437.047 416.921 437.177 417.232 437.177 418.009 437.177 418.76 436.607 419.434 435.493L414.435 426.065C414.072 425.391 413.321 425.003 412.207 424.873L412.207 423.967 418.76 423.967 418.76 424.873C417.439 425.003 416.766 425.288 416.766 425.702 416.766 425.987 416.843 426.272 416.999 426.583L420.547 433.499C421.169 432.281 421.972 430.649 422.956 428.629 423.474 427.489 423.759 426.686 423.759 426.272 423.759 425.547 423.06 425.08 421.687 424.899L421.687 423.992 427.593 423.992 427.593 424.899Z" fill="#231815" transform="matrix(1.0012 0 0 1 372.166 117.327)"/><path d="M256.975 96.641 163.805 150.44 163.805 258.011 256.975 311.81 350.145 258.011 350.145 150.44 256.975 96.641ZM254.955 192.013 170.177 151.424 254.955 102.469 254.955 192.013ZM258.996 102.495 344.965 152.123 258.996 251.406 258.996 102.495ZM258.996 258.866 340.536 258.866 258.996 305.956 258.996 258.866ZM346.079 254.8 261.405 254.8 346.079 157.019 346.079 254.8ZM167.872 154.817 254.955 196.52 254.955 305.956 167.872 255.68 167.872 154.843Z" fill="#00AEBB" transform="matrix(1.0012 0 0 1 372.166 117.327)"/></g></svg>